<?xml version="1.0" standalone="no"?>
<!DOCTYPE svg PUBLIC "-//W3C//DTD SVG 20010904//EN"
 "http://www.w3.org/TR/2001/REC-SVG-20010904/DTD/svg10.dtd">
<svg version="1.0" xmlns="http://www.w3.org/2000/svg"
 width="1072.000000pt" height="1072.000000pt" viewBox="0 0 1072.000000 1072.000000"
 preserveAspectRatio="xMidYMid meet">
<metadata>
Created by potrace 1.11, written by Peter Selinger 2001-2013
</metadata>
<g transform="translate(0.000000,1072.000000) scale(0.100000,-0.100000)"
fill="#000000" stroke="none">
<path d="M5129 10716 c-2 -3 -42 -7 -88 -10 -47 -4 -100 -9 -118 -11 -18 -3
-50 -7 -70 -10 -21 -3 -51 -8 -68 -11 -16 -3 -43 -7 -60 -9 -16 -2 -30 -4 -30
-5 0 -2 -27 -8 -70 -15 -16 -3 -39 -7 -50 -9 -11 -3 -72 -18 -135 -36 -63 -17
-122 -33 -130 -35 -32 -8 -249 -84 -325 -114 -100 -40 -409 -191 -413 -202 -2
-5 -12 -9 -22 -9 -10 0 -20 -4 -22 -8 -1 -4 -32 -26 -68 -47 -129 -77 -390
-262 -390 -277 0 -4 -6 -8 -13 -8 -7 0 -23 -10 -35 -22 -11 -13 -27 -27 -34
-33 -140 -105 -443 -422 -602 -631 -25 -32 -51 -66 -58 -74 -7 -8 -24 -31 -38
-51 -91 -131 -146 -212 -155 -227 -5 -9 -22 -35 -36 -57 -79 -121 -349 -630
-349 -658 0 -3 -16 -40 -36 -83 -20 -43 -45 -103 -56 -133 -11 -31 -24 -60
-29 -65 -5 -6 -9 -18 -9 -28 0 -10 -5 -18 -12 -18 -6 0 -9 -3 -5 -6 3 -3 1
-18 -5 -33 -36 -90 -157 -444 -164 -476 -1 -5 -10 -37 -20 -70 -10 -33 -19
-62 -19 -65 -1 -3 -7 -25 -14 -50 -7 -25 -15 -52 -16 -60 -2 -8 -4 -15 -5 -15
-1 0 -3 -7 -5 -15 -2 -8 -19 -78 -38 -155 -38 -150 -52 -216 -49 -227 1 -5 -1
-8 -6 -8 -4 0 -8 -10 -9 -23 -1 -12 -13 -76 -26 -142 -59 -284 -16 -397 148
-390 77 3 105 15 155 67 45 48 150 252 153 299 1 16 6 29 10 29 4 0 7 6 6 13
-1 6 0 19 4 27 8 22 29 89 31 103 1 7 20 64 41 127 22 63 40 117 40 120 1 3 6
16 12 30 6 14 21 54 34 90 13 36 27 67 31 68 4 2 8 11 8 20 0 17 186 395 220
447 11 17 23 37 27 45 22 47 206 314 239 347 8 8 14 17 14 21 0 4 17 25 38 47
20 23 49 56 63 75 34 45 218 230 293 295 32 28 65 57 74 66 10 9 44 36 77 60
33 24 62 47 65 50 8 10 176 121 265 174 93 56 334 178 353 178 6 0 12 4 12 9
0 4 8 8 18 8 10 0 22 3 26 8 4 4 11 7 14 8 4 0 23 8 42 16 40 17 73 31 80 33
3 0 57 18 120 39 63 21 126 40 139 43 14 2 28 6 33 9 4 3 16 7 25 9 10 2 45
10 78 19 33 8 71 17 85 20 14 2 45 9 70 14 46 11 102 21 153 28 15 2 39 6 55
9 53 10 147 22 242 30 122 11 153 14 157 19 3 2 18 0 34 -4 16 -5 31 -5 34 0
5 9 616 5 710 -4 134 -12 160 -15 285 -32 73 -9 107 -14 155 -24 28 -5 64 -11
80 -14 40 -6 201 -43 245 -56 19 -6 46 -13 60 -15 48 -7 336 -107 455 -157
136 -58 388 -186 393 -199 2 -5 8 -9 14 -9 11 0 244 -153 292 -192 16 -12 65
-52 110 -88 83 -66 318 -296 393 -385 23 -28 76 -95 117 -150 41 -55 81 -108
90 -117 9 -10 16 -21 16 -24 0 -7 72 -120 90 -141 5 -7 10 -14 10 -16 0 -2 22
-42 48 -88 151 -265 306 -647 378 -934 4 -16 8 -32 9 -35 5 -16 17 -58 19 -71
17 -88 103 -247 171 -314 48 -49 174 -72 223 -42 6 5 12 5 12 2 0 -18 58 38
77 74 19 36 22 53 18 134 -3 94 -8 128 -20 167 -4 12 -8 32 -10 43 -6 36 -32
155 -62 277 -3 14 -8 34 -10 45 -8 37 -11 50 -13 50 -1 0 -3 7 -5 15 -3 13
-18 72 -60 225 -33 122 -136 444 -155 490 -5 11 -23 58 -40 105 -18 47 -38
100 -46 117 -8 18 -21 51 -30 74 -8 23 -19 48 -25 56 -6 7 -9 13 -6 13 3 0
-15 44 -40 98 -43 94 -65 142 -68 152 -4 15 -143 282 -196 377 -18 33 -59 99
-87 143 -9 14 -17 27 -17 30 -1 9 -58 94 -79 118 -11 12 -16 22 -12 22 4 0 2
6 -4 13 -6 6 -32 41 -57 77 -56 79 -126 173 -133 180 -3 3 -21 25 -40 50 -46
60 -47 61 -73 91 -12 14 -44 52 -72 84 -65 76 -297 309 -360 360 -26 22 -58
49 -69 60 -12 11 -50 43 -86 70 -36 28 -67 52 -70 55 -24 25 -238 170 -250
170 -5 0 -10 4 -10 8 0 5 -12 15 -27 22 -16 8 -40 22 -54 32 -37 24 -140 81
-229 126 -41 20 -78 41 -81 45 -3 5 -9 8 -13 7 -3 0 -21 6 -39 14 -109 50
-309 129 -357 141 -3 1 -12 4 -20 8 -33 13 -227 70 -285 83 -37 8 -110 24
-135 29 -14 3 -45 9 -70 15 -64 13 -189 32 -230 36 -19 1 -35 3 -35 4 0 8
-598 24 -606 16z"/>
<path d="M5236 7593 c-37 -6 -84 -17 -104 -24 -49 -15 -164 -70 -180 -86 -7
-7 -17 -13 -22 -13 -5 0 -45 -35 -88 -77 -76 -74 -172 -207 -172 -238 0 -7 -4
-16 -9 -19 -7 -5 -38 -99 -48 -146 -3 -17 -15 -120 -15 -135 -2 -101 46 -297
87 -355 5 -8 19 -32 29 -52 11 -21 23 -38 28 -38 4 0 8 -5 8 -11 0 -15 84
-107 147 -159 29 -25 40 -31 112 -72 53 -30 161 -69 172 -63 5 4 9 2 9 -3 0
-5 6 -9 13 -10 6 0 47 -4 91 -7 43 -3 81 -6 85 -7 3 0 8 1 11 2 3 1 16 3 30 5
127 13 288 75 372 143 55 44 148 138 148 148 0 7 4 14 8 16 8 3 72 95 72 104
0 2 11 27 25 56 14 28 25 59 25 68 0 9 3 20 7 24 4 3 8 14 9 24 1 9 5 33 8 52
14 70 14 163 1 238 -17 103 -19 108 -49 177 -84 190 -235 336 -426 415 -39 16
-70 27 -70 25 0 -3 -10 -1 -23 4 -62 24 -203 31 -291 14z"/>
<path d="M5379 4965 c-4 -3 -94 -8 -200 -10 -107 -3 -221 -7 -254 -10 -33 -2
-100 -7 -150 -10 -49 -3 -106 -8 -125 -11 -19 -3 -57 -7 -85 -9 -78 -7 -181
-19 -320 -40 -16 -3 -46 -7 -65 -10 -19 -3 -48 -8 -63 -11 -16 -3 -38 -7 -50
-9 -21 -2 -110 -19 -167 -30 -14 -3 -38 -8 -55 -11 -16 -3 -61 -12 -99 -21
-37 -8 -75 -17 -85 -18 -9 -2 -17 -4 -18 -5 -2 -2 -6 -3 -10 -4 -5 -1 -14 -5
-20 -9 -7 -5 -13 -6 -13 -3 0 2 -29 -4 -65 -14 -36 -10 -65 -16 -65 -13 0 3
-7 0 -15 -7 -8 -7 -15 -9 -15 -6 0 4 -8 2 -18 -3 -11 -6 -30 -12 -43 -15 -43
-8 -284 -88 -296 -98 -7 -6 -13 -8 -13 -5 0 8 -260 -99 -380 -155 -52 -25 -99
-45 -104 -46 -5 0 -12 -4 -15 -9 -3 -4 -28 -19 -56 -33 -148 -73 -373 -220
-540 -352 -87 -69 -261 -239 -335 -327 -61 -72 -164 -216 -194 -271 -77 -137
-152 -303 -172 -380 -23 -88 -36 -139 -40 -160 -3 -14 -7 -32 -9 -40 -26 -95
-27 -492 0 -627 2 -11 6 -36 9 -54 21 -134 116 -438 148 -473 4 -6 8 -16 8
-24 0 -8 9 -27 21 -43 11 -16 17 -29 14 -29 -3 0 2 -12 13 -28 10 -15 22 -35
25 -45 10 -27 155 -242 187 -277 8 -9 31 -35 50 -58 72 -88 296 -302 315 -302
4 0 15 -8 24 -18 22 -23 159 -122 170 -122 5 0 11 -4 13 -8 7 -18 186 -120
348 -198 63 -31 123 -60 132 -65 66 -34 477 -181 543 -194 11 -2 20 -4 20 -5
0 -1 7 -3 15 -5 39 -10 57 -15 88 -24 18 -5 35 -10 37 -10 3 -1 6 -1 8 -2 1 0
9 -2 17 -4 8 -1 79 -17 157 -34 78 -17 153 -31 167 -31 14 0 27 -4 30 -8 2 -4
20 -9 38 -10 19 -1 45 -5 58 -8 14 -3 43 -7 65 -10 56 -6 86 -11 115 -17 14
-4 54 -9 90 -12 36 -3 74 -8 85 -10 20 -4 84 -10 205 -20 36 -3 85 -8 110 -10
286 -27 1169 -27 1515 0 33 3 90 7 126 10 67 5 137 12 219 21 25 3 62 7 84 10
56 5 126 13 166 19 19 3 53 7 75 10 22 3 54 7 70 10 52 9 99 17 125 21 14 3
36 7 50 9 14 3 36 7 50 10 14 2 37 7 53 10 15 3 39 7 55 10 92 18 302 69 392
96 58 17 121 35 140 41 100 28 360 125 374 139 6 5 16 9 24 9 16 0 256 118
327 160 28 17 57 33 65 37 50 22 262 175 355 257 93 82 255 248 255 262 0 3 9
15 21 27 61 64 239 364 239 402 0 7 6 18 14 24 8 7 18 27 22 44 3 18 10 37 13
42 26 35 97 316 117 455 22 161 25 585 4 585 -1 0 -3 12 -5 26 -2 14 -9 45
-15 70 -7 24 -13 49 -15 54 -13 57 -18 72 -76 205 -49 112 -209 370 -230 370
-5 0 -9 5 -9 10 0 16 -43 63 -185 205 -134 134 -212 205 -226 205 -4 0 -9 4
-11 8 -5 13 -123 102 -218 165 -47 32 -94 64 -105 72 -10 8 -25 15 -31 15 -7
0 -14 4 -16 8 -11 26 -400 229 -623 325 -33 14 -81 35 -107 46 -26 12 -54 21
-61 21 -7 0 -17 4 -23 8 -9 8 -195 76 -279 102 -22 7 -47 15 -55 18 -8 3 -19
6 -25 7 -5 1 -32 10 -60 20 -27 9 -61 19 -74 21 -14 3 -29 8 -35 12 -6 4 -19
7 -28 8 -10 1 -20 3 -23 4 -3 1 -8 3 -12 4 -5 1 -14 5 -20 9 -7 5 -13 6 -13 3
0 -2 -29 4 -65 14 -36 10 -68 19 -70 19 -8 1 -57 11 -100 22 -22 5 -53 11 -70
14 -43 8 -73 14 -132 26 -29 6 -65 12 -80 14 -16 2 -28 4 -28 5 0 2 -27 7 -80
14 -27 3 -61 8 -75 11 -14 3 -50 7 -80 10 -30 2 -64 6 -75 9 -11 2 -54 7 -95
10 -41 4 -97 9 -125 12 -27 2 -115 7 -195 9 -80 2 -147 5 -150 6 -3 1 -9 1
-15 -1 -30 -6 -95 -4 -98 3 -1 5 -5 6 -8 2z m-264 -449 c39 -4 93 -10 120 -16
28 -5 64 -11 80 -14 50 -8 83 -16 107 -25 13 -4 29 -6 36 -4 6 3 12 1 12 -4 0
-5 9 -9 21 -10 22 -2 102 -29 131 -44 10 -5 22 -9 28 -9 32 0 369 -171 378
-192 2 -4 8 -8 13 -8 21 0 229 -151 343 -249 55 -48 220 -216 276 -280 30 -36
63 -73 73 -83 9 -10 17 -22 17 -27 0 -5 3 -11 8 -13 17 -8 232 -316 232 -334
0 -3 9 -18 19 -33 30 -42 195 -376 191 -389 0 -1 7 -18 15 -38 64 -155 140
-447 161 -626 9 -73 9 -389 1 -453 -4 -33 -10 -73 -12 -90 -2 -16 -6 -39 -8
-50 -2 -11 -7 -36 -11 -55 -10 -58 -14 -72 -39 -156 -14 -45 -32 -96 -41 -113
-9 -17 -13 -31 -9 -31 5 0 4 -4 -2 -8 -5 -4 -20 -29 -33 -57 -36 -78 -111
-183 -182 -258 -63 -67 -188 -167 -208 -167 -6 0 -12 -4 -14 -8 -6 -17 -196
-100 -268 -118 -8 -2 -42 -11 -75 -20 -33 -9 -67 -18 -75 -19 -8 -2 -15 -4
-15 -5 0 -2 -24 -7 -75 -15 -24 -4 -48 -9 -53 -12 -5 -3 -28 -7 -50 -8 -23 -2
-85 -6 -137 -10 -173 -14 -383 -8 -481 14 -24 6 -57 12 -74 15 -61 11 -73 15
-198 56 -70 23 -140 48 -155 56 -15 8 -31 14 -35 14 -4 0 -35 13 -67 29 -32
16 -60 27 -63 25 -2 -3 -10 2 -17 11 -7 8 -17 15 -22 15 -11 0 -121 62 -218
123 -74 47 -239 169 -302 225 -106 93 -313 306 -389 402 -46 58 -94 116 -107
130 -13 14 -30 37 -38 53 -8 15 -19 27 -24 27 -6 0 -10 6 -10 13 0 7 -9 23
-20 35 -11 12 -20 24 -20 27 0 8 -44 69 -52 73 -5 2 -8 8 -8 13 0 5 -11 28
-26 50 -71 113 -168 310 -227 459 -51 132 -122 359 -132 428 -5 36 -14 81 -21
112 -3 13 -8 40 -10 60 -3 19 -7 53 -11 75 -8 57 -12 438 -5 450 4 6 7 24 8
40 1 29 8 74 19 125 3 14 8 43 11 65 4 22 9 42 13 45 3 3 8 14 9 25 5 26 25
73 69 160 34 66 42 78 71 110 6 7 12 17 12 22 0 15 146 157 203 197 127 90
292 161 475 207 63 15 117 28 121 27 3 0 8 1 11 2 8 3 40 7 105 14 33 4 71 9
85 11 14 3 79 7 144 10 66 3 121 6 122 8 4 4 225 -1 299 -7z"/>
</g>
</svg>
